<?xml version="1.0" encoding="utf-8"?>
<!-- Generator: Adobe Illustrator 22.1.0, SVG Export Plug-In . SVG Version: 6.00 Build 0)  -->
<svg version="1.1" id="Calque_1" xmlns="http://www.w3.org/2000/svg" xmlns:xlink="http://www.w3.org/1999/xlink" x="0px" y="0px"
	 viewBox="0 0 51.5 51.5" style="enable-background:new 0 0 51.5 51.5;" xml:space="preserve">
<style type="text/css">
	.st0{fill:#F0F0F0;}
	.st1{fill:#D80E2A;}
	.st2{fill:#2055A3;}
</style>
<title>l_en</title>
<g id="Calque_2_1_">
	<g id="Calque_1-2">
		<rect x="-12.9" class="st0" width="77.3" height="51.5"/>
		<polygon class="st1" points="30.6,0 20.9,0 20.9,20.9 -12.9,20.9 -12.9,30.6 20.9,30.6 20.9,51.5 30.6,51.5 30.6,30.6 64.4,30.6 
			64.4,20.9 30.6,20.9 		"/>
		<polygon class="st2" points="46.6,34.7 64.4,44.7 64.4,34.7 		"/>
		<polygon class="st2" points="34.2,34.7 64.4,51.5 64.4,46.8 42.7,34.7 		"/>
		<polygon class="st2" points="56.4,51.5 34.2,39.2 34.2,51.5 		"/>
		<polygon class="st0" points="34.2,34.7 64.4,51.5 64.4,46.8 42.7,34.7 		"/>
		<polygon class="st1" points="34.2,34.7 64.4,51.5 64.4,46.8 42.7,34.7 		"/>
		<polygon class="st2" points="4.3,34.7 -9.4,42.3 -9.4,34.7 		"/>
		<polygon class="st2" points="17.4,36.9 17.4,51.5 -9,51.5 		"/>
		<polygon class="st1" points="8.8,34.7 -12.9,46.8 -12.9,51.5 -12.9,51.5 17.4,34.7 		"/>
		<polygon class="st2" points="5,16.8 -12.9,6.9 -12.9,16.8 		"/>
		<polygon class="st2" points="17.4,16.8 -12.9,0 -12.9,4.8 8.8,16.8 		"/>
		<polygon class="st2" points="-4.8,0 17.4,12.3 17.4,0 		"/>
		<polygon class="st0" points="17.4,16.8 -12.9,0 -12.9,4.8 8.8,16.8 		"/>
		<polygon class="st1" points="17.4,16.8 -12.9,0 -12.9,4.8 8.8,16.8 		"/>
		<polygon class="st2" points="47.3,16.8 60.9,9.2 60.9,16.8 		"/>
		<polygon class="st2" points="34.2,14.7 34.2,0 60.6,0 		"/>
		<polygon class="st1" points="42.7,16.8 64.4,4.8 64.4,0 64.4,0 34.2,16.8 		"/>
	</g>
</g>
</svg>
