<svg xmlns="http://www.w3.org/2000/svg" viewBox="0 0 77.31 51.54"><defs><style>.cls-1{fill:#f0f0f0;}.cls-2{fill:#d80e2a;}.cls-3{fill:#2055a3;}</style></defs><title>l_en</title><g id="Calque_2" data-name="Calque 2"><g id="Calque_1-2" data-name="Calque 1"><rect class="cls-1" width="77.31" height="51.54"/><polygon class="cls-2" points="43.48 0 33.82 0 33.82 20.94 0 20.94 0 30.6 33.82 30.6 33.82 51.54 43.48 51.54 43.48 30.6 77.31 30.6 77.31 20.94 43.48 20.94 43.48 0"/><polygon class="cls-3" points="59.46 34.73 77.31 44.65 77.31 34.73 59.46 34.73"/><polygon class="cls-3" points="47.06 34.73 77.31 51.54 77.31 46.79 55.61 34.73 47.06 34.73"/><polygon class="cls-3" points="69.25 51.54 47.06 39.21 47.06 51.54 69.25 51.54"/><polygon class="cls-1" points="47.06 34.73 77.31 51.54 77.31 46.79 55.61 34.73 47.06 34.73"/><polygon class="cls-2" points="47.06 34.73 77.31 51.54 77.31 46.79 55.61 34.73 47.06 34.73"/><polygon class="cls-3" points="17.14 34.73 3.5 42.31 3.5 34.73 17.14 34.73"/><polygon class="cls-3" points="30.25 36.87 30.25 51.54 3.85 51.54 30.25 36.87"/><polygon class="cls-2" points="21.7 34.73 0 46.79 0 51.54 0 51.54 30.25 34.73 21.7 34.73"/><polygon class="cls-3" points="17.85 16.81 0 6.89 0 16.81 17.85 16.81"/><polygon class="cls-3" points="30.25 16.81 0 0 0 4.75 21.7 16.81 30.25 16.81"/><polygon class="cls-3" points="8.06 0 30.25 12.33 30.25 0 8.06 0"/><polygon class="cls-1" points="30.25 16.81 0 0 0 4.75 21.7 16.81 30.25 16.81"/><polygon class="cls-2" points="30.25 16.81 0 0 0 4.75 21.7 16.81 30.25 16.81"/><polygon class="cls-3" points="60.16 16.81 73.8 9.23 73.8 16.81 60.16 16.81"/><polygon class="cls-3" points="47.06 14.67 47.06 0 73.46 0 47.06 14.67"/><polygon class="cls-2" points="55.61 16.81 77.31 4.75 77.31 0 77.31 0 47.06 16.81 55.61 16.81"/></g></g></svg>