<svg xmlns="http://www.w3.org/2000/svg" viewBox="0 0 16.12 12.53"><defs><style>.cls-1{fill:#fff;}</style></defs><title>p_addr</title><g id="Calque_2" data-name="Calque 2"><g id="Calque_1-2" data-name="Calque 1"><g id="Calque_2-2" data-name="Calque 2"><path class="cls-1" d="M13.66,7.85v4a.67.67,0,0,1-.67.67H9.74a.34.34,0,0,1-.34-.33V9.06a.34.34,0,0,0-.33-.34h-2a.34.34,0,0,0-.33.34V12.2a.34.34,0,0,1-.34.33H3.13a.67.67,0,0,1-.67-.67v-4a.33.33,0,0,1,.13-.26L7.85,3.25a.35.35,0,0,1,.43,0l5.26,4.34a.32.32,0,0,1,.12.26ZM16,6.14,13.66,4.21V.34A.34.34,0,0,0,13.32,0H11.76a.34.34,0,0,0-.34.34v2L8.91.31a1.33,1.33,0,0,0-1.7,0L.12,6.14a.34.34,0,0,0,0,.48l.71.86a.33.33,0,0,0,.47,0L7.85,2.11a.35.35,0,0,1,.43,0l6.58,5.42a.33.33,0,0,0,.47,0l.72-.86A.35.35,0,0,0,16,6.14Z"/></g></g></g></svg>