<svg xmlns="http://www.w3.org/2000/svg" viewBox="0 0 7.83 12.53"><defs><style>.cls-1{fill:#fff;}</style></defs><title>p_contact</title><g id="Calque_2" data-name="Calque 2"><g id="Calque_1-2" data-name="Calque 1"><g id="Calque_2-2" data-name="Calque 2"><path class="cls-1" d="M6.66,0H1.17A1.18,1.18,0,0,0,0,1.17V11.36a1.17,1.17,0,0,0,1.17,1.17H6.66a1.17,1.17,0,0,0,1.17-1.17V1.17A1.17,1.17,0,0,0,6.66,0ZM3.92,11.75A.79.79,0,1,1,4.7,11,.78.78,0,0,1,3.92,11.75ZM6.66,9.11a.29.29,0,0,1-.3.29H1.47a.3.3,0,0,1-.3-.29V1.47a.31.31,0,0,1,.3-.3H6.36a.3.3,0,0,1,.3.3Z"/></g></g></g></svg>