<svg xmlns="http://www.w3.org/2000/svg" viewBox="0 0 12.43 14.4"><defs><style>.cls-1{fill:#fff;}</style></defs><title>p_comp</title><g id="Calque_2" data-name="Calque 2"><g id="Calque_1-2" data-name="Calque 1"><g id="Calque_3" data-name="Calque 3"><path class="cls-1" d="M12.3,7.25l-1-1.47a.73.73,0,0,1-.13-.4A5.6,5.6,0,0,0,5.6,0,6.07,6.07,0,0,0,4.48.11,5.6,5.6,0,0,0,2.4,10.19V12.8A1.6,1.6,0,0,0,4,14.4H7.2a1.6,1.6,0,0,0,1.6-1.6.8.8,0,0,1,.8-.8h0a1.6,1.6,0,0,0,1.6-1.6V9.29a.79.79,0,0,1,.44-.71L12,8.4a.79.79,0,0,0,.36-1.07A.56.56,0,0,0,12.3,7.25ZM8.78,5.44l-.43.07V5.6a2.87,2.87,0,0,1-.2,1l.38.21a.4.4,0,0,1,.14.55.4.4,0,0,1-.34.2.42.42,0,0,1-.2,0l-.39-.23a2.56,2.56,0,0,1-.87.73L7,8.47A.39.39,0,0,1,6.79,9a.4.4,0,0,1-.52-.24h0l-.14-.4A2.79,2.79,0,0,1,5,8.34l-.14.4a.4.4,0,0,1-.76-.27l.16-.42a2.56,2.56,0,0,1-.87-.73L3,7.55a.46.46,0,0,1-.2,0,.4.4,0,0,1-.4-.4.42.42,0,0,1,.2-.35L3,6.64a2.87,2.87,0,0,1-.2-1V5.51l-.43-.07A.41.41,0,0,1,2,5a.4.4,0,0,1,.46-.32h0l.44.08a2.86,2.86,0,0,1,.56-1l-.28-.33a.41.41,0,0,1,.05-.57.4.4,0,0,1,.56.05l.29.34a2.57,2.57,0,0,1,1.06-.39V2.4a.4.4,0,0,1,.4-.4.39.39,0,0,1,.4.4v.44A2.56,2.56,0,0,1,7,3.23l.28-.34a.4.4,0,0,1,.62.52l-.28.33a2.86,2.86,0,0,1,.56,1l.44-.08A.4.4,0,0,1,9.1,5h0a.41.41,0,0,1-.32.47Z"/></g></g></g></svg>