<svg xmlns="http://www.w3.org/2000/svg" viewBox="0 0 12.51 14.29"><defs><style>.cls-1{fill:#fff;}</style></defs><title>p_exp</title><g id="Calque_2" data-name="Calque 2"><g id="Calque_1-2" data-name="Calque 1"><g id="Calque_3" data-name="Calque 3"><path class="cls-1" d="M12.17,13.4h-.56V.67A.67.67,0,0,0,10.94,0H1.56A.67.67,0,0,0,.89.67V13.4H.33a.33.33,0,0,0-.33.33v.56H12.51v-.56A.34.34,0,0,0,12.17,13.4ZM3.57,2.12a.34.34,0,0,1,.34-.33H5a.34.34,0,0,1,.34.33V3.24A.34.34,0,0,1,5,3.57H3.91a.34.34,0,0,1-.34-.33Zm0,2.68a.34.34,0,0,1,.34-.33H5a.34.34,0,0,1,.34.33V5.92A.34.34,0,0,1,5,6.25H3.91a.34.34,0,0,1-.34-.33ZM5,8.93H3.91a.34.34,0,0,1-.34-.33V7.48a.34.34,0,0,1,.34-.33H5a.34.34,0,0,1,.34.33V8.6A.34.34,0,0,1,5,8.93ZM7.15,13.4H5.36V11.05a.33.33,0,0,1,.33-.33H6.81a.34.34,0,0,1,.34.33ZM8.93,8.6a.33.33,0,0,1-.33.33H7.48a.33.33,0,0,1-.33-.33V7.48a.33.33,0,0,1,.33-.33H8.6a.33.33,0,0,1,.33.33Zm0-2.68a.33.33,0,0,1-.33.33H7.48a.33.33,0,0,1-.33-.33V4.8a.33.33,0,0,1,.33-.33H8.6a.33.33,0,0,1,.33.33Zm0-2.68a.33.33,0,0,1-.33.33H7.48a.33.33,0,0,1-.33-.33V2.12a.33.33,0,0,1,.33-.33H8.6a.33.33,0,0,1,.33.33Z"/></g></g></g></svg>