<svg xmlns="http://www.w3.org/2000/svg" viewBox="0 0 12.49 14.27"><defs><style>.cls-1{fill:#fff;}</style></defs><title>p_forma</title><g id="Calque_2" data-name="Calque 2"><g id="Calque_1-2" data-name="Calque 1"><g id="Calque_3" data-name="Calque 3"><path class="cls-1" d="M12.49,10V.67A.67.67,0,0,0,11.82,0H2.68A2.68,2.68,0,0,0,0,2.68V11.6a2.68,2.68,0,0,0,2.68,2.67h9.14a.66.66,0,0,0,.67-.67v-.44a.67.67,0,0,0-.25-.52,6.11,6.11,0,0,1,0-2.09.65.65,0,0,0,.25-.51ZM3.57,3.74a.16.16,0,0,1,.17-.17H9.65a.16.16,0,0,1,.16.17v.55a.16.16,0,0,1-.16.17H3.74a.16.16,0,0,1-.17-.17Zm0,1.78a.17.17,0,0,1,.17-.17H9.65a.17.17,0,0,1,.16.17v.56a.16.16,0,0,1-.16.16H3.74a.16.16,0,0,1-.17-.16Zm7.06,7h-8a.89.89,0,0,1-.9-.89.91.91,0,0,1,.9-.9h8A10.7,10.7,0,0,0,10.63,12.49Z"/></g></g></g></svg>