<svg xmlns="http://www.w3.org/2000/svg" viewBox="0 0 13.5 13.5"><defs><style>.cls-1{fill:#fff;}</style></defs><title>p_liens</title><g id="Calque_2" data-name="Calque 2"><g id="Calque_1-2" data-name="Calque 1"><g id="Calque_2-2" data-name="Calque 2"><path class="cls-1" d="M8.61,4.89a4,4,0,0,1,0,5.66h0L6.84,12.33A4,4,0,0,1,1.17,6.66l1-1A.42.42,0,0,1,2.87,6a4.74,4.74,0,0,0,.26,1.39.44.44,0,0,1-.1.44l-.35.35a1.9,1.9,0,1,0,2.67,2.7L7.12,9.07a1.9,1.9,0,0,0,0-2.69,1.54,1.54,0,0,0-.27-.22.42.42,0,0,1-.18-.34A1,1,0,0,1,7,5l.56-.56a.42.42,0,0,1,.54,0,2.93,2.93,0,0,1,.54.45Zm3.72-3.72a4,4,0,0,0-5.67,0L4.89,2.94h0a4,4,0,0,0,0,5.66,4.69,4.69,0,0,0,.54.46A.42.42,0,0,0,6,9l.56-.55a1.06,1.06,0,0,0,.31-.79.44.44,0,0,0-.19-.33c-.07-.06-.17-.13-.27-.23a1.9,1.9,0,0,1,0-2.68L8.15,2.66a1.9,1.9,0,1,1,2.67,2.71l-.34.34a.41.41,0,0,0-.1.44,5.08,5.08,0,0,1,.25,1.39.42.42,0,0,0,.72.28l1-1a4,4,0,0,0,0-5.67Z"/></g></g></g></svg>