<svg xmlns="http://www.w3.org/2000/svg" viewBox="0 0 57.04 57.04"><defs><style>.cls-1{fill:#0e1322;stroke:#3655a2;stroke-miterlimit:10;stroke-width:3px;}.cls-2{fill:#3655a2;}.cls-3{fill:#3c61ab;}.cls-4{fill:#ebebeb;}.cls-5{fill:#fff;}</style></defs><title>s_css</title><g id="Calque_2" data-name="Calque 2"><g id="Calque_1-2" data-name="Calque 1"><g id="Calque_3" data-name="Calque 3"><circle class="cls-1" cx="28.52" cy="28.52" r="27.02"/><g id="layer1"><g id="g3013"><polygon id="polygon2989" class="cls-2" points="39.63 19 37.61 41.68 28.51 44.2 19.43 41.68 17.41 19 39.63 19"/><polygon id="polygon2991" class="cls-3" points="35.87 40.24 37.6 20.86 28.52 20.86 28.52 42.27 35.87 40.24"/><polygon id="polygon2993" class="cls-4" points="22.05 29.27 22.3 32.05 28.52 32.05 28.52 29.27 22.05 29.27"/><polygon id="polygon2995" class="cls-4" points="28.52 23.64 28.51 23.64 21.54 23.64 21.8 26.42 28.52 26.42 28.52 23.64"/><polygon id="polygon2997" class="cls-4" points="28.52 39.39 28.52 36.49 28.51 36.5 25.41 35.66 25.21 33.44 23.71 33.44 22.42 33.44 22.81 37.81 28.51 39.39 28.52 39.39"/><path id="path2999" class="cls-5" d="M22.64,12.84H26v1.41h-2v1.41h2v1.4H22.64Z"/><path id="path3001" class="cls-5" d="M26.68,12.84h3.37v1.22h-2v.25h2v2.82H26.68V15.84h2v-.25h-2Z"/><path id="path3003" class="cls-5" d="M30.73,12.84h3.36v1.22h-2v.25h2v2.82H30.73V15.84h2v-.25h-2Z"/><polygon id="polygon3005" class="cls-5" points="31.94 32.05 31.61 35.66 28.51 36.49 28.51 39.39 34.21 37.81 34.26 37.34 34.91 30.02 34.98 29.27 35.48 23.64 28.51 23.64 28.51 26.42 32.43 26.42 32.18 29.27 28.51 29.27 28.51 32.05 31.94 32.05"/></g></g></g></g></g></svg>