<svg xmlns="http://www.w3.org/2000/svg" viewBox="0 0 57.04 57.04"><defs><style>.cls-1{fill:#210911;stroke:#e44e28;stroke-miterlimit:10;stroke-width:3px;}.cls-2{fill:#fff;}.cls-3{fill:#e44e28;}.cls-4{fill:#ec662b;}.cls-5{fill:#ebebeb;}</style></defs><title>s_html</title><g id="Calque_2" data-name="Calque 2"><g id="Calque_1-2" data-name="Calque 1"><g id="Calque_3" data-name="Calque 3"><circle class="cls-1" cx="28.52" cy="28.52" r="27.02"/><path class="cls-2" d="M19.43,12.76h1.42v1.4h1.3v-1.4h1.42V17H22.15V15.59H20.86V17H19.43m6-2.84H24.19V12.76h3.92v1.41H26.86V17H25.44m3.3-4.25h1.48l.91,1.49L32,12.76h1.49V17H32.11V14.9l-1,1.53-1-1.53V17H28.74m5.49-4.25h1.41V15.6h2V17H34.23"/><path class="cls-3" d="M19.38,41.76,17.35,19H39.69l-2,22.8L28.5,44.28"/><path class="cls-4" d="M28.52,42.34V20.82h9.13L35.91,40.28"/><path class="cls-5" d="M21.5,23.61h7v2.8H24.57l.26,2.86h3.69v2.79H22.26m.13,1.4h2.8l.2,2.24,3.13.84v2.92l-5.74-1.61"/><path class="cls-2" d="M35.51,23.61h-7v2.8h6.75M35,29.27H28.51v2.8H32l-.33,3.63-3.12.84v2.9l5.72-1.59"/></g></g></g></svg>