<svg xmlns="http://www.w3.org/2000/svg" viewBox="0 0 57.04 57.04"><defs><style>.cls-1{fill:#210911;stroke:#e9468b;stroke-miterlimit:10;stroke-width:3px;}.cls-2{fill:#e9468b;}</style></defs><title>s_id</title><g id="Calque_2" data-name="Calque 2"><g id="Calque_1-2" data-name="Calque 1"><g id="Calque_3" data-name="Calque 3"><circle class="cls-1" cx="28.52" cy="28.52" r="27.02"/><path class="cls-2" d="M39,38.32a.41.41,0,0,1-.23.39,13.3,13.3,0,0,1-6.12,1.1,8.62,8.62,0,0,1-3-.68A6.45,6.45,0,0,1,26,35.21a9.32,9.32,0,0,1,0-6.48,7.6,7.6,0,0,1,5.71-4.82,9.74,9.74,0,0,1,3.32-.19c.21,0,.17-.1.17-.21V20.82c0-1.1,0-2.21,0-3.32a.29.29,0,0,1,.3-.29h3a.37.37,0,0,1,.38.37q0,4.94,0,9.89S38.87,36.55,39,38.32Zm-3.76-6.63c0-1.5,0-3,0-4.49,0-.21-.07-.28-.25-.32a5.18,5.18,0,0,0-.87-.11,4.42,4.42,0,0,0-4.43,2.6,6.24,6.24,0,0,0-.34,3.72,4,4,0,0,0,1.39,2.6,4.92,4.92,0,0,0,4.31.78c.21,0,.18-.18.18-.31Z"/><path class="cls-2" d="M22,28.52v10.8a.46.46,0,0,1-.46.45H18.52a.47.47,0,0,1-.48-.48V21.14c0-1.18,0-2.37,0-3.55a.37.37,0,0,1,.38-.38h3.22a.39.39,0,0,1,.39.4V28.52Z"/></g></g></g></svg>