<svg xmlns="http://www.w3.org/2000/svg" viewBox="0 0 57.04 57.04"><defs><style>.cls-1{fill:#1a100a;stroke:#ee7828;stroke-miterlimit:10;stroke-width:3px;}.cls-2{fill:#ee7828;}</style></defs><title>s_illu</title><g id="Calque_2" data-name="Calque 2"><g id="Calque_1-2" data-name="Calque 1"><g id="Calque_3" data-name="Calque 3"><circle class="cls-1" cx="28.52" cy="28.52" r="27.02"/><path class="cls-2" d="M25.13,17.06c.71,0,1.43,0,2.14,0,.29,0,.4.09.49.36q3.45,10.3,6.92,20.6c.17.5.33,1,.5,1.5s.09.46-.31.46c-1.14,0-2.27,0-3.4,0a.51.51,0,0,1-.59-.42c-.58-1.82-1.18-3.62-1.76-5.43-.07-.2-.14-.29-.37-.29H21.61a.33.33,0,0,0-.37.29c-.55,1.81-1.12,3.61-1.67,5.42A.51.51,0,0,1,19,40c-1,0-2,0-3,0-.42,0-.46-.06-.33-.47.77-2.36,1.53-4.71,2.3-7.06,1.42-4.35,2.83-8.7,4.27-13.05a6.9,6.9,0,0,0,.35-2c0-.24.1-.33.35-.33C23.64,17.07,24.38,17.06,25.13,17.06Zm0,3.42c-.83,3.29-1.85,6.47-2.8,9.68H28C27.08,26.94,26,23.77,25.16,20.48Z"/><path class="cls-2" d="M41.18,31.83v7.71c0,.44,0,.44-.45.44h-3c-.37,0-.41,0-.41-.4q0-7.77,0-15.53c0-.3.11-.38.39-.37,1,0,2,0,3.07,0,.41,0,.41,0,.41.43Z"/><path class="cls-2" d="M37.12,19.3a2.07,2.07,0,0,1,2.18-2.19,2,2,0,0,1,2.19,2.15,2.06,2.06,0,0,1-2.21,2.22A2,2,0,0,1,37.12,19.3Z"/></g></g></g></svg>