<svg xmlns="http://www.w3.org/2000/svg" viewBox="0 0 57.04 57.04"><defs><style>.cls-1{fill:#f0db4f;stroke:#343431;stroke-miterlimit:10;stroke-width:3px;}.cls-2{fill:#343431;}</style></defs><title>s_js</title><g id="Calque_2" data-name="Calque 2"><g id="Calque_1-2" data-name="Calque 1"><g id="Calque_3" data-name="Calque 3"><circle class="cls-1" cx="28.52" cy="28.52" r="27.02"/><path class="cls-2" d="M42.34,45.27A8,8,0,0,1,38,44.1a6.58,6.58,0,0,1-2.22-2.41c-.07-.12-.06-.17.06-.24.9-.51,1.8-1,2.69-1.56.12-.07.17,0,.25.06a4.41,4.41,0,0,0,1.19,1.35,3.79,3.79,0,0,0,3.62.49,1.67,1.67,0,0,0,1.12-1.13A1.72,1.72,0,0,0,44,38.83a6.57,6.57,0,0,0-1.32-.74c-.9-.41-1.82-.75-2.7-1.21a6.89,6.89,0,0,1-2.2-1.7,5,5,0,0,1-1.06-3.31,4.67,4.67,0,0,1,3.78-4.63,7.32,7.32,0,0,1,3.45.05,5.2,5.2,0,0,1,3.27,2.6c.05.08,0,.12,0,.17-.88.56-1.76,1.12-2.63,1.69-.09.06-.13.05-.18,0a3.19,3.19,0,0,0-.82-1,2.28,2.28,0,0,0-2.18-.33,1.6,1.6,0,0,0-.61,2.6,3.53,3.53,0,0,0,1,.67c.73.37,1.5.66,2.24,1a10.77,10.77,0,0,1,2.72,1.64,4.78,4.78,0,0,1,1.64,3.55,5.12,5.12,0,0,1-.61,2.82,4.9,4.9,0,0,1-2.84,2.21A8,8,0,0,1,42.34,45.27Z"/><path class="cls-2" d="M33.66,33.91c0,2.13,0,4.26,0,6.39a5,5,0,0,1-1.26,3.4A4.5,4.5,0,0,1,30,45.07a7.08,7.08,0,0,1-4.27-.26A5.47,5.47,0,0,1,22.79,42c-.05-.09,0-.13.05-.18l2.76-1.67c.11-.07.14,0,.19.06a5.92,5.92,0,0,0,.68,1A2,2,0,0,0,28,42a3.46,3.46,0,0,0,.79-.06A1.57,1.57,0,0,0,30,40.53a6.19,6.19,0,0,0,.06-1c0-4,0-8,0-12.08,0-.18,0-.22.22-.22q1.61,0,3.21,0c.18,0,.23,0,.23.23,0,2.13,0,4.27,0,6.41Z"/></g></g></g></svg>