<svg xmlns="http://www.w3.org/2000/svg" viewBox="0 0 57.04 57.04"><defs><style>.cls-1{fill:#201c3e;stroke:#55c2e9;stroke-miterlimit:10;stroke-width:3px;}.cls-2{fill:#55c2e9;}</style></defs><title>s_ps</title><g id="Calque_2" data-name="Calque 2"><g id="Calque_1-2" data-name="Calque 1"><g id="Calque_3" data-name="Calque 3"><circle class="cls-1" cx="28.52" cy="28.52" r="27.02"/><path class="cls-2" d="M14.14,28.53c0-3.57,0-7.15,0-10.73,0-.51.14-.64.65-.66,2.16-.11,4.33-.15,6.49-.06,2.56.1,4.94.79,6.6,2.92a7.69,7.69,0,0,1-4.36,12.13,17.22,17.22,0,0,1-4.8.37c-.43,0-.54.1-.54.53,0,2.11,0,4.21,0,6.32,0,.48-.09.68-.62.66-.94,0-1.88,0-2.82,0-.5,0-.62-.13-.62-.62C14.15,35.77,14.14,32.15,14.14,28.53Zm4-3.77c0,1.22,0,2.45,0,3.67,0,.29,0,.43.38.45A14,14,0,0,0,22,28.71,3.73,3.73,0,0,0,25.3,25c0-2.34-.93-3.65-3.09-4.18a12,12,0,0,0-3.59-.15c-.41,0-.45.19-.45.52C18.19,22.39,18.18,23.57,18.18,24.76Z"/><path class="cls-2" d="M31.43,37.1V35.94c0-.76,0-.75.64-.41a8.93,8.93,0,0,0,5,1,2.93,2.93,0,0,0,.88-.23A1.35,1.35,0,0,0,38.41,34a5.87,5.87,0,0,0-1.65-1,27.93,27.93,0,0,1-2.85-1.41,4.9,4.9,0,0,1,1.4-9.07,11.27,11.27,0,0,1,6,.18.74.74,0,0,1,.64.87c0,.77,0,1.55,0,2.33s0,.72-.67.45a8.17,8.17,0,0,0-4.77-.67,1.42,1.42,0,0,0-1.28,1.66c.05.44.4.67.71.91a11.42,11.42,0,0,0,2.32,1.22A12.26,12.26,0,0,1,41,31,4.84,4.84,0,0,1,40.46,39a9.25,9.25,0,0,1-5.64.91A9.32,9.32,0,0,1,32,39.27c-.38-.16-.6-.37-.55-.82S31.43,37.55,31.43,37.1Z"/></g></g></g></svg>