<svg xmlns="http://www.w3.org/2000/svg" viewBox="0 0 28.52 28.52"><defs><style>.cls-1{fill:#331529;stroke:#cb6499;stroke-miterlimit:10;stroke-width:1.5px;}.cls-2{fill:#cb6499;}</style></defs><title>s_scss</title><g id="Calque_2" data-name="Calque 2"><g id="Calque_1-2" data-name="Calque 1"><g id="Calque_3" data-name="Calque 3"><circle class="cls-1" cx="14.26" cy="14.26" r="13.51"/><path class="cls-2" d="M11.57,17.49c-.63-.53-1.29-.93-1.91-1.38A9.86,9.86,0,0,1,8.05,14.7,2.71,2.71,0,0,1,7.75,11,9.44,9.44,0,0,1,11,8a15.69,15.69,0,0,1,4.36-1.9,7.28,7.28,0,0,1,4.06,0,2.68,2.68,0,0,1,1.71,4,5.88,5.88,0,0,1-3.93,3.19,7,7,0,0,1-3.09.23,2.39,2.39,0,0,1-1.4-.75,1.1,1.1,0,0,1-.3-.51.19.19,0,0,1,0-.19.14.14,0,0,1,.19,0,2.91,2.91,0,0,0,2.79.63,6.33,6.33,0,0,0,4.18-2.42,2.68,2.68,0,0,0,.62-1.61,1.21,1.21,0,0,0-.66-1.15,3.57,3.57,0,0,0-1.69-.4A10,10,0,0,0,13,8.54a11.86,11.86,0,0,0-3,2.12A4.28,4.28,0,0,0,9.1,12a2.26,2.26,0,0,0,.43,2.57A9.64,9.64,0,0,0,11,15.82a11.48,11.48,0,0,1,1.31,1.11c.14.15.28.11.44.08a5.07,5.07,0,0,1,2.81,0,2.51,2.51,0,0,1,1.8,2,1.51,1.51,0,0,1-.88,1.67c-.1.05-.25.12-.32,0s.08-.19.16-.25a1.2,1.2,0,0,0,.28-1.83,2.23,2.23,0,0,0-1.17-.81,4.6,4.6,0,0,0-2.12-.17c-.29,0-.37.13-.29.45a3.78,3.78,0,0,1-2.25,4.51,3.17,3.17,0,0,1-2,.15,1.34,1.34,0,0,1-.9-1.22,2.47,2.47,0,0,1,.67-2,9.83,9.83,0,0,1,2.79-2Zm.61,1.35c0-.08,0-.25,0-.42s-.12-.28-.33-.16a7.74,7.74,0,0,0-1.63,1.15,2.9,2.9,0,0,0-.88,1.37.75.75,0,0,0,.1.79.77.77,0,0,0,.8.07A2.93,2.93,0,0,0,12.18,18.84Z"/></g></g></g></svg>